<?xml version="1.0" standalone="no"?>
<svg viewBox="0 0 200 200" xmlns="http://www.w3.org/2000/svg">
  <path fill="#D3BFA8" d="M34.5,-63.8C41.6,-55.7,42,-40.1,50,-28.2C58,-16.3,73.6,-8.2,72.2,-0.8C70.9,6.6,52.6,13.2,43.4,23.2C34.3,33.1,34.5,46.5,28.8,52.5C23.1,58.5,11.5,57,0.6,56C-10.3,54.9,-20.5,54.1,-31.3,51C-42,48,-53.3,42.6,-63.4,33.7C-73.6,24.8,-82.6,12.4,-77.6,2.9C-72.7,-6.7,-53.7,-13.4,-42.6,-20.6C-31.5,-27.7,-28.2,-35.4,-22.4,-44.3C-16.6,-53.2,-8.3,-63.4,2.7,-68.1C13.7,-72.8,27.4,-72,34.5,-63.8Z" transform="translate(100 100)" />
</svg>
