<?xml version="1.0" standalone="no"?>
<svg viewBox="0 0 200 200" xmlns="http://www.w3.org/2000/svg">
  <path fill="#D3BFA8" d="M39.1,-62.1C49.9,-61.5,57.2,-49.4,66.4,-37.1C75.7,-24.8,86.9,-12.4,81.1,-3.4C75.2,5.6,52.2,11.3,38.4,15.6C24.5,19.9,19.8,23,14.9,25.7C10,28.5,5,30.9,-4,37.9C-13,44.8,-26.1,56.3,-32.7,54.6C-39.4,52.9,-39.8,38,-44.2,26.7C-48.6,15.5,-57,7.7,-63.7,-3.9C-70.4,-15.5,-75.5,-31,-70,-40.3C-64.5,-49.7,-48.4,-52.9,-35,-51.9C-21.6,-50.9,-10.8,-45.8,1.7,-48.7C14.2,-51.7,28.4,-62.7,39.1,-62.1Z" transform="translate(100 100)" />
</svg>
